<svg width="24" height="24" viewBox="0 0 24 24" fill="white" xmlns="http://www.w3.org/2000/svg">
<path d="M2 21.25C1.58579 21.25 1.25 21.5858 1.25 22C1.25 22.4142 1.58579 22.75 2 22.75V21.25ZM22 22.75C22.4142 22.75 22.75 22.4142 22.75 22C22.75 21.5858 22.4142 21.25 22 21.25V22.75ZM3 9.96999L3.75 9.97311V9.96999H3ZM3.77 8.40004L3.30923 7.80824L3.30447 7.81201L3.77 8.40004ZM10.77 2.95003L10.3095 2.35802L10.3092 2.35824L10.77 2.95003ZM13.23 2.95003L13.6902 2.35782L13.6865 2.35496L13.23 2.95003ZM20.23 8.39003L19.7698 8.98223L19.7704 8.9827L20.23 8.39003ZM7 22H6.25C6.25 22.4142 6.58579 22.75 7 22.75V22ZM17 22V22.75C17.4142 22.75 17.75 22.4142 17.75 22H17ZM10.75 16.25C10.75 15.8358 10.4142 15.5 10 15.5C9.58579 15.5 9.25 15.8358 9.25 16.25H10.75ZM9.25 17.75C9.25 18.1642 9.58579 18.5 10 18.5C10.4142 18.5 10.75 18.1642 10.75 17.75H9.25ZM10.5 6.75C10.0858 6.75 9.75 7.08579 9.75 7.5C9.75 7.91421 10.0858 8.25 10.5 8.25V6.75ZM13.5 8.25C13.9142 8.25 14.25 7.91421 14.25 7.5C14.25 7.08579 13.9142 6.75 13.5 6.75V8.25ZM2 22.75H22V21.25H2V22.75ZM3.69999 22.0031L3.74999 9.97311L2.25001 9.96687L2.2 21.9969L3.69999 22.0031ZM3.75 9.96999C3.75 9.59742 3.92864 9.23103 4.23552 8.98808L3.30447 7.81201C2.65136 8.32906 2.25 9.12255 2.25 9.96999H3.75ZM4.23075 8.99183L11.2307 3.54182L10.3092 2.35824L3.30925 7.80826L4.23075 8.99183ZM11.2305 3.54204C11.6778 3.19413 12.3109 3.19023 12.7735 3.5451L13.6865 2.35496C12.6891 1.58983 11.3022 1.58593 10.3095 2.35802L11.2305 3.54204ZM12.7698 3.54223L19.7698 8.98223L20.6902 7.79784L13.6902 2.35783L12.7698 3.54223ZM19.7704 8.9827C20.0745 9.21853 20.25 9.57835 20.25 9.96999H21.75C21.75 9.12163 21.3655 8.32153 20.6896 7.79737L19.7704 8.9827ZM20.25 9.96999V22H21.75V9.96999H20.25ZM15.5 10.25H8.5V11.75H15.5V10.25ZM8.5 10.25C7.25579 10.25 6.25 11.2558 6.25 12.5H7.75C7.75 12.0842 8.08421 11.75 8.5 11.75V10.25ZM6.25 12.5V22H7.75V12.5H6.25ZM7 22.75H17V21.25H7V22.75ZM17.75 22V12.5H16.25V22H17.75ZM17.75 12.5C17.75 11.2558 16.7442 10.25 15.5 10.25V11.75C15.9158 11.75 16.25 12.0842 16.25 12.5H17.75ZM9.25 16.25V17.75H10.75V16.25H9.25ZM10.5 8.25H13.5V6.75H10.5V8.25Z" fill="white"/>
</svg>
