<svg width="24" height="25" viewBox="0 0 24 25" fill="none" xmlns="http://www.w3.org/2000/svg">
<path d="M7.80782 18.7494C7.41452 18.8794 7.20106 19.3036 7.33104 19.6969C7.46101 20.0902 7.88521 20.3036 8.2785 20.1737L7.80782 18.7494ZM13.8622 19.8462L13.7947 19.0992H13.7947L13.8622 19.8462ZM17.3536 19.0769L17.6802 19.7521L17.3536 19.0769ZM20.6897 16.0681L20.1089 15.5936V15.5936L20.6897 16.0681ZM18.408 14.1854L18.936 14.718L18.408 14.1854ZM16.8715 15.7087L17.3996 16.2413L16.8715 15.7087ZM12.6984 15.6346C12.2842 15.6346 11.9484 15.9704 11.9484 16.3846C11.9484 16.7988 12.2842 17.1346 12.6984 17.1346V15.6346ZM20.335 13.9962L19.9214 14.6219L20.335 13.9962ZM9.22402 13.4915L9.55713 14.1635H9.55713L9.22402 13.4915ZM13.4001 13.1128L13.5958 12.3888V12.3888L13.4001 13.1128ZM15.0309 13.5538L14.8351 14.2778H14.8351L15.0309 13.5538ZM15.5476 15.4829L15.0196 14.9502L15.0196 14.9502L15.5476 15.4829ZM14.11 15.852C13.8159 16.1436 13.8138 16.6185 14.1055 16.9127C14.3971 17.2068 14.872 17.2089 15.1661 16.9172L14.11 15.852ZM8.2785 20.1737C8.42441 20.1254 8.69032 20.1019 9.1177 20.1321C9.52982 20.1613 10.0083 20.2326 10.5463 20.3164C11.5786 20.4771 12.8472 20.6909 13.9297 20.5931L13.7947 19.0992C12.9375 19.1766 11.8785 19.0057 10.7771 18.8342C10.2483 18.7519 9.70847 18.6702 9.22349 18.6359C8.75377 18.6027 8.24381 18.6053 7.80782 18.7494L8.2785 20.1737ZM13.9297 20.5931C15.4406 20.4566 16.1472 20.4938 17.6802 19.7521L17.027 18.4018C15.783 19.0036 15.361 18.9577 13.7947 19.0992L13.9297 20.5931ZM17.6802 19.7521C19.0548 19.087 20.4335 17.5672 21.2706 16.5425L20.1089 15.5936C19.2646 16.6271 18.0697 17.8973 17.027 18.4018L17.6802 19.7521ZM17.88 13.6528L16.3435 15.1761L17.3996 16.2413L18.936 14.718L17.88 13.6528ZM15.2257 15.6346H12.6984V17.1346H15.2257V15.6346ZM16.3435 15.1761C16.0481 15.469 15.6461 15.6346 15.2257 15.6346V17.1346C16.0398 17.1346 16.8219 16.814 17.3996 16.2413L16.3435 15.1761ZM20.7485 13.3705C19.8472 12.7748 18.6475 12.8918 17.88 13.6528L18.936 14.718C19.198 14.4583 19.6113 14.4169 19.9214 14.6219L20.7485 13.3705ZM21.2706 16.5425C22.1102 15.5147 21.7952 14.0623 20.7485 13.3705L19.9214 14.6219C20.2902 14.8656 20.3399 15.3108 20.1089 15.5936L21.2706 16.5425ZM3.77587 13.2885H6.87935V11.7885H3.77587V13.2885ZM6.90522 13.3077V20.2308H8.40522V13.3077H6.90522ZM6.87935 20.25H3.77587V21.75H6.87935V20.25ZM3.75 20.2308V13.3077H2.25V20.2308H3.75ZM3.77587 20.25C3.76999 20.25 3.76642 20.249 3.7639 20.2479C3.76091 20.2466 3.75789 20.2447 3.75529 20.2421C3.75269 20.2395 3.75138 20.2372 3.75082 20.2359C3.75048 20.2351 3.75 20.2339 3.75 20.2308H2.25C2.25 21.0759 2.93925 21.75 3.77587 21.75V20.25ZM6.90522 20.2308C6.90522 20.2339 6.90475 20.2351 6.9044 20.2359C6.90384 20.2372 6.90253 20.2395 6.89993 20.2421C6.89733 20.2447 6.89431 20.2466 6.89132 20.2479C6.8888 20.249 6.88523 20.25 6.87935 20.25V21.75C7.71597 21.75 8.40522 21.0759 8.40522 20.2308H6.90522ZM6.87935 13.2885C6.88523 13.2885 6.8888 13.2895 6.89132 13.2906C6.89431 13.2918 6.89733 13.2938 6.89993 13.2964C6.90253 13.2989 6.90384 13.3013 6.9044 13.3026C6.90475 13.3034 6.90522 13.3046 6.90522 13.3077H8.40522C8.40522 12.4626 7.71598 11.7885 6.87935 11.7885V13.2885ZM3.77587 11.7885C2.93925 11.7885 2.25 12.4626 2.25 13.3077H3.75C3.75 13.3046 3.75048 13.3034 3.75082 13.3026C3.75138 13.3013 3.75269 13.2989 3.75529 13.2964C3.7579 13.2938 3.76091 13.2918 3.76391 13.2906C3.76642 13.2895 3.76999 13.2885 3.77587 13.2885V11.7885ZM8.37627 14.7489L9.55713 14.1635L8.89091 12.8196L7.71005 13.405L8.37627 14.7489ZM11.6529 13.6731H11.9711V12.1731H11.6529V13.6731ZM13.2043 13.8368L14.8351 14.2778L15.2267 12.8298L13.5958 12.3888L13.2043 13.8368ZM15.0196 14.9502L14.11 15.852L15.1661 16.9172L16.0756 16.0155L15.0196 14.9502ZM14.8351 14.2778C15.1454 14.3617 15.2364 14.7353 15.0196 14.9502L16.0756 16.0155C17.1225 14.9775 16.6406 13.2121 15.2267 12.8298L14.8351 14.2778ZM11.9711 13.6731C12.3877 13.6731 12.8025 13.7282 13.2043 13.8368L13.5958 12.3888C13.0663 12.2456 12.5199 12.1731 11.9711 12.1731V13.6731ZM9.55713 14.1635C10.2075 13.8411 10.9251 13.6731 11.6529 13.6731V12.1731C10.6944 12.1731 9.74877 12.3943 8.89091 12.8196L9.55713 14.1635ZM16.9915 7.15385C16.9915 8.43291 15.9439 9.48077 14.6381 9.48077V10.9808C16.7602 10.9808 18.4915 9.27346 18.4915 7.15385H16.9915ZM14.6381 9.48077C13.3322 9.48077 12.2846 8.43291 12.2846 7.15385H10.7846C10.7846 9.27346 12.5159 10.9808 14.6381 10.9808V9.48077ZM12.2846 7.15385C12.2846 5.87479 13.3322 4.82692 14.6381 4.82692V3.32692C12.5159 3.32692 10.7846 5.03423 10.7846 7.15385H12.2846ZM14.6381 4.82692C15.9439 4.82692 16.9915 5.87479 16.9915 7.15385H18.4915C18.4915 5.03423 16.7602 3.32692 14.6381 3.32692V4.82692ZM11.5346 6.40385C10.2287 6.40385 9.18109 5.35598 9.18109 4.07692H7.68109C7.68109 6.19654 9.41245 7.90385 11.5346 7.90385V6.40385ZM9.18109 4.07692C9.18109 2.79786 10.2287 1.75 11.5346 1.75V0.25C9.41245 0.25 7.68109 1.95731 7.68109 4.07692H9.18109ZM11.5346 1.75C12.8405 1.75 13.8881 2.79786 13.8881 4.07692H15.3881C15.3881 1.95731 13.6567 0.25 11.5346 0.25V1.75Z" fill="#FDC944"/>
</svg>
